<svg width="32" height="32" viewBox="0 0 32 32" fill="none" xmlns="http://www.w3.org/2000/svg">
<path d="M16 32C24.8366 32 32 24.8366 32 16C32 7.16344 24.8366 0 16 0C7.16344 0 0 7.16344 0 16C0 24.8366 7.16344 32 16 32Z" fill="#16C784"/>
<rect width="20" height="20" transform="translate(6 6)" fill="#16C784"/>
<path fill-rule="evenodd" clip-rule="evenodd" d="M15.9968 9.42047C14.6659 9.41551 13.3744 9.88213 12.3416 10.7411C11.3089 11.6 10.5986 12.7982 10.3315 14.1322C10.0644 15.4662 10.257 16.8537 10.8764 18.0589C11.2415 18.7692 11.7416 19.3903 12.3416 19.8894C12.709 20.1949 12.7647 20.7473 12.4661 21.1231C12.1675 21.4989 11.6276 21.5559 11.2603 21.2504C10.4818 20.6029 9.83286 19.7969 9.35916 18.8753C8.55537 17.3115 8.30553 15.5112 8.6521 13.7803C8.99867 12.0493 9.92026 10.4946 11.2603 9.38006C12.6003 8.26557 14.2762 7.66012 16.0031 7.66655C16.4765 7.66832 16.8588 8.06238 16.8571 8.54671C16.8554 9.03104 16.4702 9.42224 15.9968 9.42047Z" fill="white"/>
<path fill-rule="evenodd" clip-rule="evenodd" d="M16.0032 9.42047C17.3341 9.41551 18.6256 9.88213 19.6584 10.7411C20.6911 11.6 21.4014 12.7982 21.6685 14.1322C21.9356 15.4662 21.743 16.8537 21.1236 18.0589C20.7585 18.7692 20.2584 19.3903 19.6584 19.8894C19.291 20.1949 19.2353 20.7473 19.5339 21.1231C19.8325 21.4989 20.3724 21.5559 20.7397 21.2504C21.5182 20.6029 22.1671 19.7969 22.6408 18.8753C23.4446 17.3115 23.6945 15.5112 23.3479 13.7803C23.0013 12.0493 22.0797 10.4946 20.7397 9.38006C19.3997 8.26557 17.7238 7.66012 15.9969 7.66655C15.5235 7.66832 15.1412 8.06238 15.1429 8.54671C15.1446 9.03104 15.5298 9.42224 16.0032 9.42047Z" fill="white"/>
<path fill-rule="evenodd" clip-rule="evenodd" d="M15.9968 12.7683C15.4304 12.7661 14.8807 12.9647 14.4411 13.3303C14.0016 13.6959 13.6993 14.2059 13.5856 14.7737C13.4719 15.3414 13.5538 15.932 13.8175 16.4449C14.0378 16.8736 13.8768 17.4038 13.4578 17.6293C13.0388 17.8547 12.5206 17.6899 12.3002 17.2613C11.8523 16.3897 11.713 15.3864 11.9062 14.4217C12.0993 13.457 12.6129 12.5905 13.3598 11.9693C14.1066 11.3482 15.0406 11.0107 16.0031 11.0143L15.9968 12.7683Z" fill="white"/>
<path fill-rule="evenodd" clip-rule="evenodd" d="M15.9968 12.7683C16.5633 12.7661 17.1193 12.9647 17.5589 13.3303C17.9984 13.6959 18.3007 14.2059 18.4144 14.7737C18.5281 15.3414 18.4462 15.932 18.1825 16.4449C17.9622 16.8736 18.1232 17.4038 18.5422 17.6293C18.9612 17.8547 19.4794 17.6899 19.6998 17.2613C20.1477 16.3897 20.287 15.3864 20.0938 14.4217C19.9007 13.457 19.3871 12.5905 18.6402 11.9693C17.8934 11.3482 16.9625 11.0107 16 11.0143L15.9968 12.7683Z" fill="white"/>
<path d="M16.046 17.3174C15.5952 17.3174 15.2214 17.6748 15.1908 18.135L14.8417 23.3968C14.8081 23.9034 15.2006 24.3332 15.6969 24.3332H16.4337C16.9299 24.3332 17.3225 23.9034 17.2889 23.3968L16.9397 18.135C16.9092 17.6748 16.5354 17.3174 16.0846 17.3174H16.046Z" fill="white"/>
</svg>
