<svg width="32" height="32" viewBox="0 0 32 32" fill="none" xmlns="http://www.w3.org/2000/svg">
<path fill-rule="evenodd" clip-rule="evenodd" d="M16 0C24.8372 0 32 7.16282 32 16C32 24.8372 24.8372 32 16 32C7.16282 32 0 24.8372 0 16C0 7.16282 7.16282 0 16 0Z" fill="#14B2CE"/>
<path d="M8.79379 15.9997L8.80532 20.2305L12.4002 22.3458V24.8228L6.70148 21.4805V14.7625L8.79379 15.9997ZM8.79379 11.7689V14.2343L6.7002 12.9958V10.5305L8.79379 9.29199L10.8976 10.5305L8.79379 11.7689ZM13.9015 10.5305L15.9951 9.29199L18.0989 10.5305L15.9951 11.7689L13.9015 10.5305Z" fill="white"/>
<path d="M10.3066 19.3535V16.8766L12.4002 18.1151V20.5805L10.3066 19.3535ZM13.9015 23.233L15.9951 24.4715L18.0989 23.233V25.6984L15.9951 26.9369L13.9015 25.6984V23.233ZM21.1015 10.5305L23.1951 9.29199L25.2989 10.5305V12.9958L23.1951 14.2343V11.7689L21.1015 10.5305ZM23.1951 20.2305L23.2066 15.9997L25.3002 14.7612V21.4792L19.6015 24.8215V22.3446L23.1951 20.2305Z" fill="white"/>
<path d="M21.6932 19.3539L19.5996 20.5808V18.1154L21.6932 16.877V19.3539Z" fill="white"/>
<path d="M21.6938 12.6458L21.7054 15.1228L18.1002 17.2381V21.4792L16.0066 22.7061L13.913 21.4792V17.2381L10.3079 15.1228V12.6458L12.4105 11.4074L15.9938 13.533L19.5989 11.4074L21.7028 12.6458H21.6938ZM10.3066 8.41635L15.9951 5.0625L21.6938 8.41635L19.6002 9.65481L15.9951 7.52917L12.4002 9.65481L10.3066 8.41635Z" fill="white"/>
</svg>
