<svg width="32" height="32" viewBox="0 0 32 32" fill="none" xmlns="http://www.w3.org/2000/svg">
<path d="M31.5213 19.8705C29.3841 28.442 20.7016 33.6584 12.1281 31.521C3.55818 29.3841 -1.65886 20.702 0.479231 12.1312C2.61545 3.55871 11.298 -1.65814 19.8688 0.478775C28.4417 2.61569 33.6584 11.2987 31.521 19.8706L31.5212 19.8705H31.5213Z" fill="#14B2CE"/>
<path d="M23.0561 13.7204C23.3746 11.5912 21.7534 10.4466 19.5364 9.68311L20.2556 6.79886L18.4997 6.36137L17.7996 9.16969C17.3379 9.05457 16.8639 8.94609 16.3927 8.83856L17.0979 6.01171L15.3431 5.57422L14.6235 8.45754C14.2415 8.37057 13.8663 8.28462 13.5023 8.19406L13.5043 8.18499L11.0828 7.58037L10.6157 9.45561C10.6157 9.45561 11.9185 9.7542 11.891 9.77258C12.6021 9.95003 12.7307 10.4207 12.7093 10.7937L11.8901 14.0796C11.9391 14.092 12.0026 14.11 12.0726 14.1381C12.0141 14.1236 11.9517 14.1077 11.887 14.0922L10.7388 18.6952C10.6519 18.9113 10.4313 19.2354 9.93416 19.1123C9.95176 19.1378 8.65792 18.7939 8.65792 18.7939L7.78613 20.8036L10.0712 21.3732C10.4963 21.4798 10.9129 21.5913 11.3231 21.6962L10.5965 24.6135L12.3504 25.051L13.07 22.1646C13.5491 22.2947 14.0141 22.4147 14.4693 22.5278L13.7522 25.4005L15.5082 25.838L16.2347 22.9261C19.229 23.4927 21.4804 23.2643 22.428 20.5563C23.1917 18.3761 22.39 17.1185 20.8148 16.2984C21.9621 16.0339 22.8263 15.2793 23.0567 13.7207L23.0562 13.7203L23.0561 13.7204ZM19.0442 19.3455C18.5016 21.5258 14.8303 20.3472 13.64 20.0517L14.6042 16.1867C15.7944 16.4838 19.6114 17.0718 19.0443 19.3455H19.0442ZM19.5873 13.6889C19.0922 15.672 16.0366 14.6645 15.0454 14.4174L15.9196 10.9121C16.9108 11.1592 20.1029 11.6203 19.5874 13.6889H19.5873Z" fill="white"/>
</svg>
