<svg width="32" height="32" viewBox="0 0 32 32" fill="none" xmlns="http://www.w3.org/2000/svg">
  <path d="M16 32C24.8366 32 32 24.8366 32 16C32 7.16344 24.8366 0 16 0C7.16344 0 0 7.16344 0 16C0 24.8366 7.16344 32 16 32Z" fill="#486DF7"/>
  <path d="M23.5207 13.5042H20.1831C19.7206 13.5042 19.3457 13.8792 19.3457 14.3417V21.8417C19.3457 22.3042 19.7206 22.6792 20.1831 22.6792C20.6456 22.6792 21.0207 22.3042 21.0207 21.8417V15.1667H22.6831V21.8292C22.6831 22.2917 23.0582 22.6667 23.5207 22.6667C23.9832 22.6667 24.3582 22.2917 24.3582 21.8292V14.3417C24.3582 13.8792 23.9832 13.5042 23.5207 13.5042Z" fill="white"/>
  <path d="M11.8456 17.6668H8.50812C8.04562 17.6668 7.67062 18.0418 7.67062 18.5043V21.8418C7.67062 22.3043 8.04562 22.6793 8.50812 22.6793C8.97062 22.6793 9.34563 22.3043 9.34563 21.8418V19.3418H11.0081V21.8418C11.0081 22.3043 11.3831 22.6793 11.8456 22.6793C12.3081 22.6793 12.6831 22.3043 12.6831 21.8418V18.5043C12.6831 18.0418 12.3081 17.6668 11.8456 17.6668Z" fill="white"/>
  <path d="M17.6832 16.0042H14.3457C13.8832 16.0042 13.5082 16.3792 13.5082 16.8417V21.8417C13.5082 22.3042 13.8832 22.6792 14.3457 22.6792C14.8082 22.6792 15.1832 22.3042 15.1832 21.8417V17.6792H16.8457V21.8417C16.8457 22.3042 17.2207 22.6792 17.6832 22.6792C18.1457 22.6792 18.5207 22.3042 18.5207 21.8417V16.8417C18.5207 16.3792 18.1457 16.0042 17.6832 16.0042Z" fill="white"/>
  <path d="M8.52067 15.8542C8.65817 15.8542 8.80817 15.8167 8.93317 15.7417L14.0582 12.7792C14.3082 12.6292 14.6332 12.6292 14.8832 12.7792L15.7957 13.3042C16.5707 13.7542 17.5207 13.7542 18.2957 13.3042L23.9207 10.0542C24.3207 9.82917 24.4582 9.31667 24.2207 8.91667C23.9957 8.51667 23.4832 8.37917 23.0832 8.61667L17.4582 11.8667C17.1957 12.0167 16.8832 12.0167 16.6207 11.8667L15.7082 11.3417C14.9332 10.8917 13.9832 10.8917 13.2082 11.3417L8.08317 14.3042C7.68317 14.5292 7.54567 15.0417 7.78317 15.4417C7.93317 15.7042 8.22066 15.8542 8.50816 15.8542H8.52067Z" fill="white"/>
</svg>
