<svg width="32" height="32" viewBox="0 0 32 32" fill="none" xmlns="http://www.w3.org/2000/svg">
<path d="M16 32C24.8366 32 32 24.8366 32 16C32 7.16344 24.8366 0 16 0C7.16344 0 0 7.16344 0 16C0 24.8366 7.16344 32 16 32Z" fill="#13B2CF"/>
<rect width="20" height="20" transform="translate(6 6)" fill="#13B2CF"/>
<path d="M16 7.66663C11.4083 7.66663 7.66667 11.4083 7.66667 16C7.66667 20.5916 11.4083 24.3333 16 24.3333C20.5917 24.3333 24.3333 20.5916 24.3333 16C24.3333 11.4083 20.5917 7.66663 16 7.66663ZM22.6083 15.1666H19.7C19.6167 13.1833 19.2417 11.2583 18.5833 9.85829C20.7333 10.7666 22.3083 12.775 22.6083 15.1666ZM16 22.6666C15.35 22.6666 14.125 20.6166 13.9667 16.8333H18.0333C17.875 20.6166 16.65 22.6666 16 22.6666ZM13.9667 15.1666C14.125 11.3833 15.35 9.33329 16 9.33329C16.65 9.33329 17.875 11.3833 18.0333 15.1666H13.9667ZM13.4167 9.85829C12.7583 11.2666 12.3833 13.1833 12.3 15.1666H9.39167C9.69167 12.7666 11.2667 10.7666 13.4167 9.85829ZM9.39167 16.8333H12.3C12.3833 18.8166 12.7583 20.7416 13.4167 22.1416C11.2667 21.2333 9.69167 19.225 9.39167 16.8333ZM18.5833 22.1416C19.2417 20.7333 19.6167 18.8166 19.7 16.8333H22.6083C22.3083 19.2333 20.7333 21.2333 18.5833 22.1416Z" fill="white"/>
</svg>
