<svg width="32" height="32" viewBox="0 0 32 32" fill="none" xmlns="http://www.w3.org/2000/svg">
<path d="M16 32C24.8366 32 32 24.8366 32 16C32 7.16344 24.8366 0 16 0C7.16344 0 0 7.16344 0 16C0 24.8366 7.16344 32 16 32Z" fill="#16C784"/>
<path fill-rule="evenodd" clip-rule="evenodd" d="M19.4507 10.2751C19.8343 9.82858 20.3635 9.54167 21.0231 9.54167C21.9298 9.54167 22.555 10.1332 22.9473 10.7147C23.3455 11.3051 23.621 12.0473 23.8142 12.7245C24.0107 13.4133 24.1382 14.0941 24.2165 14.5975C24.2558 14.8507 24.2832 15.0622 24.3009 15.2117C24.3098 15.2865 24.3163 15.3459 24.3206 15.3875L24.3254 15.4361L24.3267 15.4498L24.3271 15.4538L24.3273 15.4552L24.3273 15.456C24.3689 15.9144 24.031 16.3196 23.5726 16.3612C23.1144 16.4027 22.7092 16.065 22.6675 15.6067L22.6674 15.6053L22.6666 15.5969L22.6628 15.5592C22.6592 15.5252 22.6537 15.4739 22.6458 15.4077C22.6302 15.2752 22.6054 15.0839 22.5696 14.8536C22.4975 14.3903 22.3827 13.782 22.2115 13.1817C22.0369 12.5699 21.8194 12.0231 21.5655 11.6466C21.3057 11.2614 21.1199 11.2083 21.0231 11.2083C20.8992 11.2083 20.8158 11.2437 20.715 11.3611C20.5874 11.5096 20.4508 11.7782 20.3293 12.2113C20.0852 13.0822 19.9884 14.2782 19.8847 15.5966L19.8811 15.6425C19.783 16.8906 19.6759 18.2528 19.3775 19.3038C19.2258 19.8382 19.0032 20.3755 18.6428 20.7907C18.2558 21.2365 17.7244 21.5208 17.0642 21.5208C15.7666 21.5208 15.115 20.5119 14.7972 19.6687C14.4777 18.8212 14.3513 17.7976 14.2618 17.0726L14.2559 17.0248L14.2547 17.0104L14.254 17.0038L14.2515 16.9774C14.2491 16.9533 14.2454 16.9167 14.24 16.8693C14.2294 16.7743 14.2126 16.637 14.1886 16.4715C14.1401 16.1379 14.0636 15.702 13.9515 15.2735C13.8362 14.8331 13.6973 14.4563 13.5455 14.2078C13.5108 14.1511 13.4813 14.1098 13.4573 14.0799C13.3861 14.1941 13.3014 14.3952 13.2188 14.7144C13.051 15.3639 12.9565 16.2253 12.8506 17.1901C12.8395 17.2916 12.8282 17.3943 12.8167 17.498C12.7019 18.5347 12.5637 19.68 12.2681 20.5695C12.1196 21.0162 11.909 21.4716 11.5837 21.826C11.2355 22.2053 10.7621 22.4583 10.1774 22.4583C9.35405 22.4583 8.74801 22.0698 8.35722 21.5245C7.99547 21.0197 7.82912 20.4025 7.74746 19.8783C7.66368 19.3405 7.65668 18.816 7.66856 18.435C7.67456 18.2422 7.68559 18.0808 7.69531 17.9659C7.70017 17.9084 7.70473 17.8622 7.70822 17.8293L7.71255 17.7901L7.71394 17.7783L7.71441 17.7744L7.71458 17.773L7.71394 17.7783L7.71471 17.7719C7.77163 17.3152 8.18801 16.9911 8.64471 17.0481C9.10106 17.1049 9.42501 17.5207 9.36872 17.977L9.36858 17.9781L9.36819 17.9814L9.36561 18.0049C9.36328 18.0269 9.35985 18.0614 9.35604 18.1064C9.34841 18.1966 9.33936 18.3281 9.33441 18.4869C9.32438 18.809 9.33199 19.222 9.39426 19.6217C9.45865 20.035 9.5698 20.3553 9.71194 20.5537C9.82502 20.7115 9.94925 20.7917 10.1774 20.7917C10.2354 20.7917 10.2805 20.7811 10.3559 20.6989C10.4541 20.5919 10.5721 20.3881 10.6865 20.0438C10.9167 19.3512 11.0414 18.3871 11.1602 17.3145C11.172 17.2084 11.1837 17.1011 11.1955 16.9931C11.2971 16.0616 11.405 15.0717 11.6052 14.2973C11.7167 13.8662 11.8764 13.4167 12.1363 13.0596C12.4165 12.6747 12.852 12.3542 13.449 12.3542C14.2233 12.3542 14.7071 12.9121 14.9679 13.3391C15.2455 13.7937 15.4337 14.3544 15.5638 14.8515C15.697 15.3605 15.7842 15.8621 15.8379 16.2317C15.8649 16.4177 15.884 16.5733 15.8963 16.6835C15.9025 16.7386 15.907 16.7825 15.9101 16.8134L15.9134 16.8484C16.0085 17.6175 16.117 18.4448 16.3568 19.0809C16.6043 19.7379 16.8498 19.8542 17.0642 19.8542C17.1945 19.8542 17.2816 19.8163 17.3842 19.6981C17.5134 19.5493 17.6515 19.2809 17.7742 18.8486C18.0211 17.9789 18.1196 16.7836 18.2232 15.4659L18.229 15.3917C18.3264 14.1521 18.4324 12.8032 18.7245 11.7614C18.8742 11.2277 19.0938 10.6906 19.4507 10.2751ZM13.3824 14.0072C13.3824 14.0072 13.3848 14.0079 13.3896 14.0111C13.3847 14.0091 13.3824 14.0072 13.3824 14.0072Z" fill="white"/>
</svg>
