<svg width="32" height="32" viewBox="0 0 32 32" fill="none" xmlns="http://www.w3.org/2000/svg">
<path d="M16 32C24.8366 32 32 24.8366 32 16C32 7.16344 24.8366 0 16 0C7.16344 0 0 7.16344 0 16C0 24.8366 7.16344 32 16 32Z" fill="#2444D4"/>
<path d="M8.08402 16C8.08425 11.513 11.7219 7.87506 16.209 7.875C18.2253 7.875 20.0704 8.61209 21.4898 9.82731C21.8394 10.1266 21.8802 10.6528 21.5809 11.0024C21.2816 11.352 20.7554 11.3929 20.4058 11.0936C19.2759 10.1262 17.8118 9.54167 16.209 9.54167C12.6424 9.54172 9.75089 12.4333 9.75069 16C9.75069 19.5668 12.6422 22.4583 16.209 22.4583C17.812 22.4583 19.2759 21.8739 20.4058 20.9064C20.7554 20.6072 21.2816 20.648 21.5809 20.9976C21.8802 21.3471 21.8393 21.8734 21.4898 22.1727C20.0703 23.3881 18.2255 24.125 16.209 24.125C11.7218 24.1249 8.08402 20.4873 8.08402 16Z" fill="white"/>
<path d="M22.2576 14.8151C22.2576 14.2814 21.8252 13.8485 21.2916 13.8483C20.7578 13.8483 20.3248 14.2813 20.3248 14.8151V17.1849C20.3248 17.7186 20.7578 18.1517 21.2916 18.1517C21.8252 18.1515 22.2576 17.7185 22.2576 17.1849V14.8151ZM23.9242 17.1849C23.9242 18.639 22.7457 19.8182 21.2916 19.8183C19.8373 19.8183 18.6581 18.6391 18.6581 17.1849V14.8151C18.6581 13.3608 19.8373 12.1816 21.2916 12.1816C22.7457 12.1818 23.9242 13.3609 23.9242 14.8151V17.1849Z" fill="white"/>
<path d="M15.474 12.1824C16.2091 12.1978 16.8243 12.4782 17.2595 12.9425C17.6833 13.3949 17.8949 13.9767 17.9292 14.5449C17.9783 15.3577 17.6561 16.0001 17.2814 16.4931C16.9345 16.9495 16.4529 17.3806 16.1681 17.6683C16.1595 17.677 16.1503 17.6852 16.1413 17.6935L15.627 18.1688H17.0975C17.5577 18.1688 17.9308 18.5419 17.9308 19.0021C17.9308 19.4623 17.5577 19.8354 17.0975 19.8354H13.4981C13.155 19.8354 12.8467 19.6251 12.7217 19.3056C12.5968 18.9862 12.6806 18.6229 12.9325 18.3901L15.0101 16.4695C15.3972 16.0805 15.7013 15.8177 15.9549 15.484C16.1862 15.1796 16.2825 14.9239 16.2658 14.6458C16.2516 14.4105 16.1664 14.2129 16.0436 14.0818C15.932 13.9627 15.7503 13.8548 15.439 13.8483C14.7938 13.8349 14.3968 14.1916 14.3249 14.763C14.2673 15.2196 13.8505 15.5431 13.3939 15.4857C12.9373 15.4281 12.6138 15.0113 12.6712 14.5547C12.856 13.0872 14.0264 12.1522 15.474 12.1824Z" fill="white"/>
</svg>
